<?xml version="1.0" encoding="utf-8"?>
<!-- Generator: Adobe Illustrator 21.1.0, SVG Export Plug-In . SVG Version: 6.00 Build 0)  -->
<svg version="1.1" id="Layer_1" xmlns="http://www.w3.org/2000/svg" xmlns:xlink="http://www.w3.org/1999/xlink" x="0px" y="0px"
	 viewBox="0 0 316 121" style="enable-background:new 0 0 316 121;" xml:space="preserve">
<style type="text/css">
	.st0{fill:#F48070;}
</style>
<g>
	<path class="st0" d="M125.6,9.8c-0.7-0.2-1.5,0.1-1.9,0.7l-20.3,30.4C95.8,22.7,77.7,9.8,56.8,9.8C28.9,9.8,6.3,32.5,6.3,60.3
		s22.7,50.5,50.5,50.5s50.5-22.7,50.5-50.5c0-5.4-0.9-10.6-2.4-15.5L123.4,17v93.6h3.4V11.4C126.8,10.6,126.3,10,125.6,9.8z
		 M9.6,60.2c0-26,21.1-47.1,47.1-47.1c20.4,0,37.8,13,44.3,31.2l-42.2,63c-0.7,0-1.4,0.1-2.2,0.1C30.8,107.3,9.6,86.2,9.6,60.2z
		 M103.9,60.2c0,23.8-17.7,43.5-40.6,46.7l39.1-58.5C103.4,52.2,103.9,56.1,103.9,60.2z"/>
	<path class="st0" d="M207.4,110.4l-33.8-50.3l33.7-50.4h-4.2l-62.4,93.7V9.7h-3.4V109c0,0.7,0.5,1.4,1.2,1.6c0.2,0,0.3,0.1,0.5,0.1
		c0.6,0,1.1-0.3,1.4-0.8l31.2-46.8l31.9,47.3L207.4,110.4z"/>
	<path class="st0" d="M237.3,76.2c-17,0-17-19.6-17-33.9c0-9.3,0-17.2,2-23.3c2.3-7.1,7.3-10.5,15-10.6h0.1
		c7.7,0,12.6,3.5,14.9,10.6c2,6.1,2,14.5,2,23.3c0,8.9,0,17.3-2,23.4C249.9,72.7,245,76.2,237.3,76.2z M237.4,11.5h-0.1
		c-13.3,0.1-14,11.2-14,30.8c0,20.4,2.2,30.8,13.9,30.8c13.3,0,13.9-11.1,13.9-30.8c0-8.6,0-16.8-1.8-22.4
		C247.4,14.1,243.7,11.5,237.4,11.5z"/>
	<path class="st0" d="M276.4,40.6L276.4,40.6c-0.4-0.3-0.8-0.5-1.1-0.8c-8.5-5.8-13.7-8.5-13.5-17.5c0.1-4.9,3.1-10.9,11-11.4
		c7.6-0.5,10,2,11.7,3.7c1.8,1.9,1.8,5.6,1.7,6.9l1.5,0.2l1.5,0.2c0-0.2,0.6-6.2-2.5-9.4c-1.9-2-5-5.2-14.1-4.7
		c-9.4,0.6-13.8,7.6-13.9,14.4c-0.3,10.3,5.7,14.1,13.1,18.9l0,0c0.4,0.3,0.8,0.5,1.1,0.8c8.5,5.8,13.7,9.8,13.5,18.7
		c-0.1,4.9-3.1,10.9-11,11.4c-7.6,0.5-10-2-11.7-3.7c-1.8-1.9-1.8-5.6-1.7-6.9l-1.5-0.2L259,61c0,0.2-0.6,6.2,2.5,9.4
		c1.9,2,5,5.2,14.1,4.7c9.4-0.6,13.8-7.6,13.9-14.4C289.7,50.5,283.7,45.4,276.4,40.6z"/>
	<path class="st0" d="M287.1,95.3l-8.5-12.5c-0.5-0.7-1.4-0.9-2.2-0.4c-0.7,0.5-0.9,1.4-0.4,2.2l7,10.3h-59.6
		c-0.7,0-1.2,0.5-1.2,1.2v0.6c0,0.7,0.5,1.2,1.2,1.2h59.4l-6.8,10.3c-0.5,0.7-0.3,1.7,0.4,2.1c0.3,0.2,0.6,0.3,0.9,0.3
		c0.5,0,1-0.2,1.3-0.7l8.2-12.5C287.4,96.8,287.6,95.9,287.1,95.3z"/>
</g>
<g>
	<path class="st0" d="M299,9.7v0.5h-1V13h-0.6v-2.7h-1V9.8L299,9.7L299,9.7z M302.5,13l-0.1-1.9c0-0.3,0-0.6,0-0.9l0,0
		c-0.1,0.3-0.2,0.7-0.3,1l-0.6,1.8h-0.7l-0.6-1.9c-0.1-0.3-0.2-0.6-0.2-0.9l0,0c0,0.3,0,0.6,0,0.9l-0.1,1.9h-0.6l0.2-3.3h1l0.6,1.6
		c0.1,0.3,0.1,0.5,0.2,0.8l0,0c0.1-0.3,0.2-0.6,0.2-0.8l0.6-1.6h0.9l0.3,3.3H302.5z"/>
</g>
</svg>
